PathFileType	4	(X/Y/Z)	C:/Users/beibeiliu/ov580/test_trc/capture2\sequence.33_training_dense_right.trc
DataRate	CameraRate	NumFrames	NumMarkers	Units	OrigDataRate	OrigDataStartFrame	OrigNumFrames
120	120	24	19	mm	120	253	336
Frame#	Time	ThumbCMC			ThumbMCP			ThumbIP			ThumbTip			IndexMCP			IndexPIP			IndexTip			MiddleMCP			MiddlePIP			MiddleTip			RingMCP			RingPIP			RingTip			PinkyMCP			PinkyPIP			PinkyTip			BackHand1			BackHand2			BackHand3	
		X0	Y0	Z0	X1	Y1	Z1	X2	Y2	Z2	X3	Y3	Z3	X4	Y4	Z4	X5	Y5	Z5	X6	Y6	Z6	X7	Y7	Z7	X8	Y8	Z8	X9	Y9	Z9	X10	Y10	Z10	X11	Y11	Z11	X12	Y12	Z12	X13	Y13	Z13	X14	Y14	Z14	X15	Y15	Z15	X16	Y16	Z16	X17	Y17	Z17	X18	Y18	Z18	
252	2.1	99.9089	56.2747	60.1755	79.4385	59.0003	32.9531	69.4771	64.3101	9.62545	72.6222	63.1956	-13.9715	130.617	93.5705	5.14298	115.181	102.914	-21.9709	92.4412	93.0352	-41.8156	142.486	78.2214	-10.0935	128.673	76.5656	-38.1204	93.7035	60.5701	-43.2303	137.758	53.6965	-16.2755	110.987	41.7515	-28.0435	94.5845	31.3125	1.96709	137.496	34.939	-12.8215	110.07	23.0814	-9.97079	108.176	22.7452	23.0922	162.143	39.7256	35.366	158.19	23.1016	61.2407	143.481	56.8132	58.3709	
253	2.10833	105.572	59.3605	57.0406	86.2245	58.3139	34.2945	74.1591	70.0065	6.03725	75.9653	71.3414	-18.4794	134.82	97.5018	5.73812	122.035	105.821	-21.4949	102.154	97.0084	-39.8926	146.741	80.0883	-10.1766	130.059	77.3774	-40.5588	97.6364	63.8833	-43.6285	143.573	53.9231	-19.5282	116.752	46.4236	-28.6952	98.1711	35.2343	-1.14699	143.062	32.3084	-15.3327	115.006	27.3921	-14.1602	109.829	25.2205	19.6975	164.161	38.9264	32.3041	160.665	26.0254	61.7029	148.778	56.2746	58.1596	
254	2.11667	113.003	57.6802	55.3883	93.8069	61.0225	28.6036	84.8612	71.2691	4.69575	88.6592	72.1711	-21.3754	145.742	98.1249	-0.808971	133.967	104.55	-24.0607	106.131	96.1126	-43.0004	155.114	80.4676	-12.0781	137.475	80.5322	-41.5641	104.28	63.9094	-43.8981	150.897	56.1246	-21.7657	121.882	49.781	-32.033	105.187	38.343	-3.48215	150.031	32.8193	-20.1946	119.187	33.0715	-14.5596	116.58	29.9939	14.2791	171.84	35.9671	31.7129	165.326	26.9481	57.0749	153.106	57.1539	57.0704	
255	2.125	119.399	60.101	52.5883	101.704	66.7821	22.0925	91.294	76.7327	-1.52454	95.563	78.7186	-28.7883	156.042	97.0614	-0.306464	144.106	107.349	-28.9528	118.237	95.5002	-47.5554	166.15	80.5171	-17.9917	149.232	80.4832	-45.0329	118.732	67.4181	-48.2123	161.687	55.7443	-22.8123	129.993	49.6714	-35.7092	114.765	41.6844	-10.3175	159.332	33.4179	-23.8624	128.7	32.137	-20.9877	122.258	32.483	8.09268	178.221	38.1504	26.072	171.2	23.0151	56.0505	159.618	58.8966	51.9104	
256	2.13333	131.01	62.6639	41.9844	112.198	66.7672	15.2497	105.057	77.2542	-8.96845	108.94	77.47	-31.5364	169.068	95.8152	-9.13752	158.666	106.679	-34.0651	133.959	94.9996	-52.4464	179.518	75.8249	-21.5888	162.085	78.1555	-50.9859	127.34	67.7758	-52.7261	170.106	58.9427	-30.9787	144.303	48.3057	-42.5173	124.173	42.2831	-16.8944	167.499	34.609	-30.6098	138.622	35.2413	-26.4194	129.853	32.0984	0.256859	186.372	38.4813	23.8969	179.717	24.5376	49.4502	171.651	54.2686	48.1161	
257	2.14167	138.355	62.9685	37.5544	124.232	66.0877	7.85506	115.432	76.5795	-16.4116	123.375	76.7809	-42.427	180.443	96.6564	-15.5275	170.565	100.409	-45.4857	147.356	91.2234	-59.4607	190.735	77.99	-28.6932	175.067	78.1074	-56.1766	140.644	64.5674	-59.3877	183.399	55.5428	-36.4825	154.96	48.6748	-49.0054	135.318	42.8445	-24.5157	179.789	31.8013	-35.0729	152.075	31.7854	-37.0765	140.872	31.0846	-4.95581	196.624	34.694	14.7639	188.418	20.7154	42.5234	179.624	52.9194	41.1664	
258	2.15	149.159	59.5342	27.6196	132.478	69.0176	-3.65358	128.933	75.3891	-28.0941	136.146	73.959	-55.1097	196.183	89.4152	-22.606	184.988	96.8031	-53.8574	163.875	85.6917	-67.2605	204.728	68.7693	-36.874	185.52	74.5561	-65.7862	153.131	60.4636	-66.4179	196.364	46.7064	-47.1838	166.703	45.4706	-57.4466	147.06	38.0588	-29.6198	193.303	27.6199	-38.6736	162.291	26.5786	-45.7571	151.377	31.2207	-15.743	206.907	30.6317	11.4451	196.117	14.5359	33.8288	190.426	52.6721	33.5843	
259	2.15833	159.332	58.6267	18.3984	146.323	63.0623	-13.17	142.668	71.0188	-37.9441	148.321	68.7681	-62.3198	207.07	87.6156	-31.4599	197.452	92.7855	-59.7632	172.126	81.4533	-75.9457	216.986	63.5685	-46.5945	199.424	69.207	-71.3965	169.456	53.6879	-76.6935	208.645	43.7161	-48.8072	183.095	39.2525	-64.815	158.811	36.3121	-41.1036	204.785	20.602	-49.6721	173.393	24.0413	-52.8931	160.45	26.3246	-26.6098	217.626	23.9787	3.14191	201.39	8.56926	30.1215	196.346	48.8169	28.1792	
260	2.16667	166.357	54.0988	10.4925	154.478	57.5871	-19.0451	152.047	66.801	-47.6326	160.999	63.0347	-74.3526	220.058	76.857	-40.9527	212.769	81.6518	-67.7789	185.062	71.3641	-83.9018	227.491	55.029	-47.7554	214.59	58.3913	-78.885	180.63	47.4511	-83.985	219.236	35.5558	-55.863	192.551	33.5165	-71.7474	168.819	27.7964	-47.9053	215.781	13.0224	-55.2805	187.539	15.1493	-61.7222	172.196	17.8239	-34.4026	222.227	15.6395	0.42335	207.557	5.99705	25.3911	208.358	42.3139	17.962	
261	2.175	176.121	45.5292	2.64897	165.284	51.2903	-31.8233	166.919	55.7672	-60.3575	177.979	46.8645	-80.9393	228.922	68.0011	-45.6812	222.125	76.3901	-73.2314	198.26	60.4883	-90.8652	238.02	48.2938	-55.8231	225.046	45.3398	-85.1373	188.937	37.0846	-89.7447	230.633	24.7426	-62.5924	206.704	20.539	-79.0079	179.171	19.4795	-54.4455	226.5	3.30664	-54.2379	198	5.0725	-68.3971	182.712	13.4295	-39.4676	231.415	9.12863	-4.99356	213.223	2.18876	20.4692	212.74	35.1458	12.9702	
262	2.18333	183.316	40.5245	-6.56784	169.599	41.6507	-35.9601	171.07	47.0217	-65.2	184.745	35.7388	-87.4771	236.916	59.3854	-53.5241	231.102	60.151	-80.7155	207.06	47.1343	-97.5637	246.055	33.9255	-60.7419	231.845	33.8299	-91.4287	200.112	24.022	-94.5983	239.863	13.3627	-63.1526	214.13	12.2475	-82.5169	187.936	6.51926	-60.4845	233.334	-6.83286	-59.6189	207.588	-4.24993	-72.8575	189.551	-0.420889	-47.8743	235.61	-2.78491	-6.2836	221.187	-7.60972	17.9794	222.044	27.7143	6.97698	
263	2.19167	189.318	31.7701	-12.7443	177.816	32.4625	-43.3728	182.377	33.2072	-73.9011	193.381	22.2713	-93.0058	243.576	48.0571	-57.3044	236.358	51.2113	-86.6701	215.75	37.5481	-101.917	252.212	22.0742	-61.6029	242.04	21.9213	-92.0846	206.212	14.978	-99.3842	246.614	2.66	-66.3299	222.381	-3.51287	-86.809	195.839	-5.57989	-66.4447	239.545	-19.3465	-60.2142	212.278	-16.2296	-73.2906	193.413	-9.28104	-49.6802	240.463	-8.67519	-8.22236	224.376	-14.1207	16.8406	222.688	19.2458	4.75727	
264	2.2	190.004	24.6777	-12.5694	182.283	21.5629	-45.1217	187.678	21.4357	-77.6029	198.458	7.35132	-92.5382	249.684	34.2324	-61.6809	243.474	37.1856	-88.5828	222.913	21.2892	-105.431	258.101	9.51486	-64.7912	248.216	6.9373	-95.7871	211.893	-0.886431	-102.83	251.684	-13.05	-66.2686	227.047	-12.4167	-87.6183	198.951	-15.4438	-65.29	242.019	-29.2057	-59.9485	215.087	-26.6723	-74.2068	198.231	-16.4693	-47.2519	243.7	-21.0975	-8.54975	227.295	-20.5801	13.3716	227.142	11.1212	2.35301	
265	2.20833	198.333	14.1153	-17.2464	187.656	12.9987	-50.2739	191.06	10.9618	-80.4768	203.064	-4.83874	-98.9359	254.72	20.0318	-61.9293	250.804	21.7975	-91.4217	227.737	9.02152	-110.576	263.588	-2.4676	-67.3547	254.234	-6.17888	-95.2406	221.451	-15.8024	-106.006	252.703	-23.8272	-67.8002	227.466	-28.8568	-88.4646	202.681	-25.1574	-71.8969	242.927	-44.7437	-62.3925	218.1	-39.984	-73.8259	198.738	-29.9524	-46.7821	247.559	-29.3351	-12.6683	227.907	-28.8719	17.5017	231.759	4.11969	1.00128	
266	2.21667	198.281	9.58758	-20.2412	188.204	2.39915	-49.7308	191.936	-0.802068	-76.8619	201.161	-14.463	-100.941	255.722	8.56577	-60.2972	252.561	10.5954	-94.974	234.99	-2.90717	-113.356	265.174	-14.7039	-67.0465	258.5	-17.5023	-97.5963	229.177	-22.5597	-112.957	253.621	-33.0046	-67.2698	232.599	-42.6739	-87.4775	200.994	-35.5922	-73.6271	243.238	-52.2097	-56.2578	214.625	-53.1611	-71.1627	197.022	-33.7745	-49.4486	248.188	-36.4183	-9.28343	230.435	-35.9396	13.2194	231.718	-5.73114	-0.0862636	
267	2.225	197.556	-0.125785	-16.746	187.495	-4.19554	-50.6788	187.818	-7.97085	-78.0948	196.056	-22.4306	-97.9384	253.221	5.53069	-63.4444	256.078	0.0210109	-93.0138	237.62	-12.1107	-119.24	264.015	-20.0442	-66.9342	260.755	-28.0795	-97.2556	237.387	-34.5832	-118.425	253.097	-43.7888	-67.8703	230.3	-46.8685	-89.4491	197.857	-42.1459	-78.2037	240.608	-61.1967	-56.5873	214.107	-61.6233	-70.7981	194.476	-42.1784	-49.0922	249.107	-42.592	-11.7417	232.192	-40.443	15.1734	234.244	-9.40094	-4.12063	
268	2.23333	194.961	-1.47199	-16.18	182.5	-6.95136	-51.7668	182.556	-12.3461	-74.8479	191.109	-25.0181	-101.08	255.603	-3.20769	-66.3643	254.785	-0.765727	-95.5673	245.081	-11.0803	-120.01	263.309	-28.3554	-66.1226	263.483	-31.2057	-94.9262	243.796	-45.021	-122.989	251.277	-48.866	-68.7674	229.354	-53.6953	-90.3865	198.415	-50.235	-84.1823	238.552	-69.7835	-56.5206	209.735	-65.0394	-70.187	188.894	-50.1729	-49.6897	246.736	-45.7395	-12.3281	228.483	-46.7084	16.5559	230.006	-12.4321	-0.460177	
269	2.24167	196.188	-7.64002	-17.6759	182.393	-11.0766	-48.4141	178.741	-14.2127	-75.3105	183.747	-25.0655	-98.2353	250.583	-3.61446	-64.3933	256.391	-5.82205	-94.8008	253.113	-13.4223	-118.32	260.148	-29.6491	-63.803	265.374	-39.7607	-96.007	253.204	-49.5579	-124.809	248.761	-55.2534	-64.5207	230.511	-60.139	-89.5802	198.413	-57.5941	-88.9136	235.373	-75.9636	-56.4025	208.032	-71.0076	-68.6509	187.219	-55.3632	-49.9893	246.186	-48.5836	-11.0084	231.181	-46.3799	15.1763	231.003	-14.8694	-2.15427	
270	2.25	192.607	-4.02503	-17.1828	175.828	-9.82212	-44.9812	173.974	-14.8404	-69.3478	177.372	-24.7215	-93.8879	249.205	-8.83918	-64.0284	255.233	-7.99234	-92.9189	257.553	-11.0489	-116.287	258.361	-31.7974	-64.4161	264.978	-40.3917	-91.5836	260.335	-45.7501	-125.172	244.84	-57.4761	-66.5555	224.384	-62.1229	-91.5453	192.316	-61.1371	-92.3291	233.059	-77.1945	-54.2136	205.7	-76.1587	-67.6393	185.774	-56.0383	-53.8735	240.466	-50.0229	-8.43491	228.034	-44.901	19.0017	229.871	-17.5034	1.01624	
271	2.25833	189.319	-5.48202	-14.3542	172.064	-10.0938	-43.3697	166.458	-11.2974	-68.6737	170.446	-20.1182	-93.2652	243.424	-8.62334	-63.2964	251.247	-5.94113	-89.4392	259.935	-9.44819	-116.622	254.553	-34.3998	-63.0985	263.668	-42.1312	-88.8552	264.957	-49.0323	-117.87	241.655	-58.5026	-63.5486	223.022	-69.1479	-89.5846	193.056	-66.0194	-95.5903	229.37	-76.4054	-53.3215	199.973	-75.7292	-66.7937	179.637	-57.9617	-56.0877	242.028	-49.0783	-10.9039	224.961	-50.377	20.5646	228.173	-16.4817	-0.0176339	
272	2.26667	188.083	-6.27684	-14.2538	171.743	-11.746	-40.4082	166.422	-11.9937	-66.9405	162.807	-15.3402	-87.7975	238.751	-7.2949	-60.742	248.981	-7.42037	-86.2123	257.663	-6.27789	-107.749	253.394	-38.2826	-62.3709	261.362	-42.422	-88.4901	266.356	-49.1787	-119.26	237.718	-57.1069	-61.8844	219.745	-69.7496	-90.0259	192.308	-67.1694	-96.5082	223.484	-78.9347	-54.6269	195.869	-77.4661	-65.9758	173.674	-59.6898	-52.8673	236.001	-49.9012	-9.55609	226.013	-47.851	19.7339	225.739	-21.6314	1.36404	
273	2.275	184.001	-4.2732	-7.66032	169.227	-10.73	-37.2243	158.155	-6.93701	-59.8668	155.552	-7.80445	-85.0928	235.663	-7.4771	-57.7697	242.98	-3.68399	-81.9928	253.369	-5.94531	-104.809	247.091	-36.4739	-58.178	256.496	-40.4644	-87.7079	261.532	-45.9364	-112.251	232.706	-58.8107	-62.809	216.384	-66.8798	-86.8747	186.008	-63.0787	-96.9673	220.6	-78.7963	-49.4768	197.218	-75.3547	-66.7904	171.304	-61.2332	-58.0728	232.304	-47.1493	-3.85173	221	-47.0055	19.4008	223.302	-19.3102	0.13416	
274	2.28333	179.886	-3.83049	-0.943576	162.937	-7.82059	-27.8464	153.402	-2.47006	-58.5384	150.456	-5.67695	-79.1953	230.822	-2.30745	-58.0154	237.77	-1.98745	-80.2042	246.746	2.19713	-101.201	242.264	-30.4274	-59.9969	250.073	-36.673	-85.5415	256.055	-39.1847	-112.627	228.819	-56.4608	-62.4742	214.565	-59.9489	-83.4041	181.83	-62.439	-94.2221	216.498	-76.6544	-46.2092	190.874	-74.6051	-64.6414	166.243	-60.0716	-54.1286	229.687	-45.3665	-2.86507	218.086	-48.407	28.0684	218.119	-18.7922	4.64681	
275	2.29167	174.635	-1.83166	1.43474	154.795	-2.64015	-26.5014	149.723	-2.0568	-51.2646	142.992	0.172969	-73.8367	223.653	-1.7865	-50.6102	230.18	4.4685	-77.3251	239.909	6.68862	-101.358	235.755	-28.829	-54.062	242.256	-30.1994	-82.7072	245.789	-35.0306	-107.713	223.684	-51.3695	-53.5253	207.531	-58.9734	-80.7014	179.756	-55.8196	-90.2309	211.407	-71.6445	-47.8125	188.12	-67.254	-62.9777	162.179	-55.7451	-54.3437	224.211	-46.8407	-3.28338	213.073	-42.7707	28.829	211.786	-16.7564	10.3079	
